<svg xmlns="http://www.w3.org/2000/svg" width="146" height="147" fill="none" viewBox="0 0 146 147"><circle cx="73" cy="73.5" r="73" fill="#D1F46E"/><path fill="#BD87F1" d="M74.9325 45.7886C74.5657 45.7886 74.0344 45.4977 73.5664 45.1941C66.5337 40.6405 61.9928 35.2774 61.9928 29.8637C61.9928 25.0825 65.3068 21.7938 69.3923 21.7938C71.9347 21.7938 73.8194 23.2105 74.9325 25.2722C76.0583 23.1978 77.9429 21.7938 80.4853 21.7938C84.5583 21.7938 87.8722 25.0825 87.8722 29.8637C87.8722 35.2774 83.3313 40.6405 76.3112 45.1941C75.8432 45.4977 75.2993 45.7886 74.9325 45.7886Z"/><path fill="#2E39FF" d="M75.9244 119.811C74.381 119.811 72.8314 119.232 71.3195 117.715C65.3343 111.709 58.5211 109.272 49.2548 109.82C47.4166 109.927 45.2145 110.953 43.0877 111.942C39.6686 113.528 35.7977 115.329 32.1213 113.698C29.6369 112.596 27.8426 110.198 26.6381 106.364C24.9128 100.88 23.8023 89.5226 23.8776 78.0959C23.9278 70.327 24.5803 56.319 28.3884 49.7526C29.7122 47.4735 31.381 46.1011 33.3635 45.6793C42.6298 43.6835 72.0096 51.7043 75.3346 52.6297L75.3911 52.6423C75.8554 52.7808 76.3698 52.7053 76.8152 52.4409C84.4692 47.8387 99.4571 42.4873 106.515 41.8452C111.622 41.3856 115.267 47.335 118.667 61.7711C121.647 74.4381 123.291 88.9749 123.724 93.13C124.439 100.011 123.554 104.456 120.932 107.106C117.726 110.349 113.171 109.914 108.767 109.486C107.28 109.341 105.737 109.197 104.294 109.197C94.1746 109.197 88.1895 113.308 83.823 116.311C81.4578 117.935 78.7224 119.811 75.9432 119.811H75.9244ZM51.7078 103.449C61.4195 103.449 69.1174 106.603 75.755 113.264C75.9683 113.478 76.0812 113.522 76.0812 113.522C76.0875 113.522 76.0938 113.522 76.1063 113.522C76.7525 113.522 78.7789 112.13 80.2658 111.111C85.0275 107.837 92.2235 102.895 104.282 102.895C106.032 102.895 107.72 103.058 109.357 103.216C112.444 103.512 115.355 103.795 116.465 102.668C117.118 102.007 118.115 99.9735 117.469 93.7785C116.44 83.8879 114.771 73.2041 113.002 65.1897C109.928 51.2824 107.381 48.5816 106.81 48.1346C101.038 48.7642 87.2421 53.4922 80.0336 57.8363C78.1013 59.001 75.7675 59.3095 73.6345 58.6862C61.6642 55.3684 40.5155 50.5773 34.6747 51.8302C33.4576 52.3527 30.7285 58.5225 30.2266 74.1988C29.8502 85.9151 30.8791 98.9221 32.6169 104.469C33.4639 107.163 34.3234 107.793 34.6559 107.938C35.7412 108.416 38.2444 107.251 40.4591 106.225C42.9936 105.048 45.867 103.713 48.8972 103.537C49.8571 103.48 50.7981 103.449 51.7204 103.449H51.7078Z"/><path fill="#2E39FF" d="M52.4294 68.4497C55.9847 68.4497 56.8736 73.7237 56.8736 76.3607C57.2744 79.7511 55.5504 83.1415 52.4294 83.1415C49.3084 83.1415 48.9729 78.621 48.726 76.3607C48.4791 73.7237 48.8742 68.4497 52.4294 68.4497Z"/><path fill="#2E39FF" d="M97.4231 67.5312C100.978 67.5312 101.867 72.8052 101.867 75.4422C102.268 78.8327 100.544 82.2231 97.4231 82.2231C94.3021 82.2231 93.9666 77.7025 93.7197 75.4422C93.4728 72.8052 93.8678 67.5312 97.4231 67.5312Z"/><circle cx="51.421" cy="73.041" r="1.836" fill="#fff"/><circle cx="96.415" cy="72.123" r="1.836" fill="#fff"/><path fill="#2E39FF" d="M80.8048 89.1481C80.8048 90.9231 77.4679 94.1984 73.918 94.1984C70.3681 94.1984 67.0312 90.9231 67.0312 89.1481C67.0312 87.3732 70.3681 87.7707 73.918 87.7707C77.4679 87.7707 80.8048 87.3732 80.8048 89.1481Z"/><path fill="#fff" d="M54.1743 80.3867C54.0043 80.3867 53.8633 80.26 53.8307 80.0755C53.4726 77.6654 53.1652 77.3759 50.8251 77.0611C50.637 77.0358 50.5032 76.891 50.5032 76.7137C50.5032 76.5328 50.6406 76.388 50.8287 76.3663C53.1688 76.1058 53.5052 75.7656 53.8307 73.352C53.8597 73.1674 54.0007 73.0408 54.1743 73.0408C54.3479 73.0408 54.489 73.1674 54.5179 73.352C54.8651 75.762 55.1871 76.0877 57.5272 76.3663C57.7116 76.388 57.8491 76.5328 57.8491 76.7137C57.8491 76.891 57.708 77.0394 57.5236 77.0611C55.1798 77.3217 54.8434 77.6618 54.5179 80.0755C54.489 80.26 54.3515 80.3867 54.1743 80.3867Z"/><path fill="#fff" d="M99.168 79.4685C98.998 79.4685 98.8569 79.3418 98.8244 79.1573C98.4663 76.7472 98.1589 76.4577 95.8187 76.1429C95.6307 76.1176 95.4968 75.9728 95.4968 75.7955C95.4968 75.6146 95.6343 75.4698 95.8223 75.4481C98.1625 75.1876 98.4988 74.8474 98.8244 72.4338C98.8533 72.2492 98.9944 72.1226 99.168 72.1226C99.3416 72.1226 99.4826 72.2492 99.5116 72.4338C99.8588 74.8438 100.181 75.1695 102.521 75.4481C102.705 75.4698 102.843 75.6146 102.843 75.7955C102.843 75.9728 102.702 76.1212 102.517 76.1429C100.173 76.4035 99.8371 76.7436 99.5116 79.1573C99.4826 79.3418 99.3452 79.4685 99.168 79.4685Z"/></svg>