<svg width="64" height="54" viewBox="0 0 64 54" fill="none" xmlns="http://www.w3.org/2000/svg">
<path d="M1.63672 21.1797V17.3125C1.63672 16.8047 1.81901 16.375 2.18359 16.0234C2.54818 15.6719 2.97786 15.4961 3.47266 15.4961C3.99349 15.4961 4.4362 15.6719 4.80078 16.0234C5.16536 16.375 5.34766 16.8047 5.34766 17.3125V21.043C5.34766 23.2565 5.8099 25.1966 6.73438 26.8633C7.67188 28.5169 8.98047 29.7995 10.6602 30.7109C12.3398 31.6224 14.2865 32.0781 16.5 32.0781C18.7266 32.0781 20.6732 31.6224 22.3398 30.7109C24.0065 29.7995 25.3086 28.5169 26.2461 26.8633C27.1836 25.1966 27.6523 23.2565 27.6523 21.043V17.3125C27.6523 16.8047 27.8346 16.375 28.1992 16.0234C28.5638 15.6719 29 15.4961 29.5078 15.4961C30.0156 15.4961 30.4453 15.6719 30.7969 16.0234C31.1615 16.375 31.3438 16.8047 31.3438 17.3125V21.1797C31.3438 23.862 30.7904 26.2318 29.6836 28.2891C28.5768 30.3464 27.0404 31.9935 25.0742 33.2305C23.1211 34.4674 20.862 35.2096 18.2969 35.457V39.4609H25.4648C25.9727 39.4609 26.4089 39.6367 26.7734 39.9883C27.138 40.3529 27.3203 40.7891 27.3203 41.2969C27.3203 41.7917 27.138 42.2148 26.7734 42.5664C26.4089 42.931 25.9727 43.1133 25.4648 43.1133H7.53516C7.02734 43.1133 6.59115 42.931 6.22656 42.5664C5.86198 42.2148 5.67969 41.7917 5.67969 41.2969C5.67969 40.7891 5.86198 40.3529 6.22656 39.9883C6.59115 39.6367 7.02734 39.4609 7.53516 39.4609H14.7031V35.457C12.138 35.2096 9.8724 34.4674 7.90625 33.2305C5.9401 31.9935 4.40365 30.3464 3.29688 28.2891C2.1901 26.2318 1.63672 23.862 1.63672 21.1797ZM16.5 28.0352C15.1849 28.0352 14.0065 27.7292 12.9648 27.1172C11.9362 26.4922 11.1224 25.6328 10.5234 24.5391C9.92448 23.4453 9.625 22.1758 9.625 20.7305V7.58594C9.625 6.14062 9.92448 4.87109 10.5234 3.77734C11.1224 2.68359 11.9362 1.83073 12.9648 1.21875C14.0065 0.59375 15.1849 0.28125 16.5 0.28125C17.8151 0.28125 18.987 0.59375 20.0156 1.21875C21.0573 1.83073 21.8711 2.68359 22.457 3.77734C23.056 4.87109 23.3555 6.14062 23.3555 7.58594V20.7305C23.3555 22.1758 23.056 23.4453 22.457 24.5391C21.8711 25.6328 21.0573 26.4922 20.0156 27.1172C18.987 27.7292 17.8151 28.0352 16.5 28.0352Z" fill="#2E39FF"/>
<path d="M47.4854 53.5557C45.415 53.5557 43.4668 53.1602 41.6406 52.3691C39.8145 51.5879 38.2031 50.499 36.8066 49.1025C35.4199 47.7061 34.3311 46.0947 33.54 44.2686C32.749 42.4424 32.3535 40.4941 32.3535 38.4238C32.3535 36.3535 32.749 34.4053 33.54 32.5791C34.3311 30.7529 35.4199 29.1465 36.8066 27.7598C38.2031 26.3633 39.8096 25.2695 41.626 24.4785C43.4521 23.6875 45.4004 23.292 47.4707 23.292C49.5508 23.292 51.5039 23.6875 53.3301 24.4785C55.1562 25.2695 56.7676 26.3633 58.1641 27.7598C59.5605 29.1465 60.6543 30.7529 61.4453 32.5791C62.2363 34.4053 62.6318 36.3535 62.6318 38.4238C62.6318 40.4941 62.2363 42.4424 61.4453 44.2686C60.6543 46.0947 59.5605 47.7061 58.1641 49.1025C56.7676 50.499 55.1562 51.5879 53.3301 52.3691C51.5039 53.1602 49.5557 53.5557 47.4854 53.5557ZM47.4854 50.5674C49.1748 50.5674 50.752 50.2549 52.2168 49.6299C53.6816 49.0049 54.9707 48.1357 56.084 47.0225C57.1973 45.9092 58.0664 44.6201 58.6914 43.1553C59.3164 41.6904 59.6289 40.1133 59.6289 38.4238C59.6289 36.7441 59.3164 35.1719 58.6914 33.707C58.0664 32.2324 57.1973 30.9385 56.084 29.8252C54.9707 28.7119 53.6768 27.8428 52.2021 27.2178C50.7373 26.5928 49.1602 26.2803 47.4707 26.2803C45.791 26.2803 44.2139 26.5928 42.7393 27.2178C41.2744 27.8428 39.9902 28.7119 38.8867 29.8252C37.7832 30.9385 36.9189 32.2324 36.2939 33.707C35.6689 35.1719 35.3564 36.7441 35.3564 38.4238C35.3564 40.1133 35.6689 41.6904 36.2939 43.1553C36.9189 44.6201 37.7832 45.9092 38.8867 47.0225C40 48.1357 41.2891 49.0049 42.7539 49.6299C44.2285 50.2549 45.8057 50.5674 47.4854 50.5674ZM45.9033 45.3818C45.6299 45.3818 45.3857 45.3232 45.1709 45.2061C44.9561 45.0791 44.7461 44.8936 44.541 44.6494L41.084 40.4307C40.8301 40.1084 40.7031 39.7812 40.7031 39.4492C40.7031 39.0879 40.8252 38.7803 41.0693 38.5264C41.3232 38.2627 41.626 38.1309 41.9775 38.1309C42.2021 38.1309 42.4023 38.1797 42.5781 38.2773C42.7637 38.3652 42.9443 38.5264 43.1201 38.7607L45.8447 42.2178L51.6309 32.9453C51.9336 32.4473 52.3145 32.1982 52.7734 32.1982C53.1152 32.1982 53.4229 32.3105 53.6963 32.5352C53.9697 32.7598 54.1064 33.0527 54.1064 33.4141C54.1064 33.5801 54.0674 33.751 53.9893 33.9268C53.9209 34.0928 53.8379 34.249 53.7402 34.3955L47.1924 44.6348C46.8799 45.1328 46.4502 45.3818 45.9033 45.3818Z" fill="#2E39FF"/>
</svg>
