<svg width="221" height="134" viewBox="0 0 221 134" fill="none" xmlns="http://www.w3.org/2000/svg">
<path d="M85.0313 65.8677C85.0313 65.8677 62.6944 62.9873 57.6491 70.1929C52.6037 77.3985 49.7234 95.415 50.4435 100.456C51.1636 105.496 50.4435 115.587 64.1346 117.027C77.8257 118.467 89.8511 115.4 90.3215 107.925C90.4319 93.6052 73.1404 99.3706 71.7002 99.3706C70.2601 99.3706 69.54 98.6505 69.54 96.4903C69.54 94.33 70.9802 94.33 73.1452 94.33C75.3102 94.33 86.1163 95.7702 86.1163 89.2847C86.1163 82.7992 80.3508 84.2393 71.705 84.2393C71.705 84.2393 70.4521 84.2009 70.3609 82.0599C70.2697 79.9188 77.4705 79.9188 84.6761 82.7992C91.8817 85.6795 100.527 68.3879 85.0361 65.8677H85.0313Z" fill="#2E39FF"/>
<path d="M81.6106 35.0152C79.4456 32.8022 75.8788 31.6837 71.0207 31.6837C65.0344 31.6837 58.7265 33.383 55.3373 34.2951C54.7324 34.4584 54.2188 34.5976 53.8059 34.6984C52.385 35.0536 50.7864 35.2264 48.9142 35.2264C44.5889 35.2264 39.6252 34.2951 34.8198 33.3974C32.3571 32.9366 30.0289 32.4997 27.9647 32.2261C25.6124 31.9141 23.1785 31.7461 20.9175 31.7461C15.9153 31.7461 11.7052 32.5093 8.41208 34.0071C4.36043 35.8553 1.85454 38.7548 0.755222 42.8737C-0.305696 46.8533 -0.24809 49.7625 0.92324 51.289C1.96496 52.6428 4.25961 53.3293 7.7544 53.3293C8.92093 53.3293 10.0539 53.2525 10.8075 53.1949C11.8157 53.118 12.9966 52.9548 14.2447 52.782C16.3282 52.494 18.69 52.1675 20.8887 52.1675C24.6811 52.1675 27.3838 53.1661 29.1504 55.2159C30.8642 57.2033 31.469 59.9636 30.9506 63.4152C30.4273 66.9148 27.619 71.7201 24.0714 77.8024C18.402 87.5139 10.6395 100.816 13.3806 108.444C14.2975 110.993 16.453 112.856 19.9718 114.152C20.9271 114.502 21.8824 114.68 22.8089 114.68C27.7486 114.68 33.1252 109.443 37.9498 99.9281C42.7599 90.447 46.8308 77.0631 49.423 62.2391C49.447 62.1142 49.4759 61.9894 49.5095 61.8646C50.6952 57.741 52.4906 55.7391 54.9869 55.7391C55.2365 55.7391 55.4525 55.7631 55.971 55.8111C57.2095 55.936 60.109 56.2288 63.6662 56.2288C69.5277 56.2288 74.4914 55.4223 78.015 53.8957C82.3931 51.9995 84.4814 49.148 84.5966 44.9187C84.6878 40.4638 83.6845 37.1227 81.6202 35.0152H81.6106Z" fill="#2E39FF"/>
<path d="M118.405 55.1238C118.405 55.1238 109.515 52.2483 106.567 56.9624C103.619 61.6766 92.4198 97.0421 100.081 108.827C107.743 120.618 125.424 118.256 128.371 113.542C131.319 108.827 132.034 100.868 122.687 100.575C113.341 100.282 116.879 86.7258 118.645 83.1878C121.002 77.2927 134.66 61.2397 118.4 55.119L118.405 55.1238Z" fill="#2E39FF"/>
<path d="M155.057 53.7751C155.057 53.7751 145.936 53.0549 142.096 60.0158C139.148 64.7299 128.118 97.5224 135.78 109.308C143.441 121.098 161.122 118.736 164.069 114.022C167.017 109.308 167.732 101.348 158.385 101.056C149.039 100.763 152.577 87.2061 154.343 83.6681C156.7 77.773 171.138 53.7799 155.057 53.7751Z" fill="#2E39FF"/>
<path d="M131.443 59.4686C130.262 59.4686 129.077 59.0269 127.92 57.87C123.34 53.2903 118.127 51.4325 111.036 51.8502C109.63 51.9318 107.945 52.7142 106.317 53.4679C103.701 54.6777 100.739 56.0506 97.9259 54.8073C96.0249 53.9672 94.6519 52.1382 93.7302 49.2147C92.4101 45.0334 91.5604 36.3732 91.618 27.6603C91.6564 21.7364 92.1557 11.0552 95.0696 6.04825C96.0825 4.31045 97.3594 3.26394 98.8764 2.9423C105.967 1.42053 128.448 7.53641 130.992 8.24209L131.035 8.25169C131.39 8.3573 131.784 8.2997 132.125 8.09807C137.982 4.58888 149.45 0.508429 154.851 0.0187749C158.758 -0.331664 161.547 4.20484 164.149 15.2125C166.43 24.8711 167.687 35.9556 168.019 39.1239C168.566 44.3709 167.889 47.7601 165.882 49.7811C163.429 52.2534 159.944 51.9222 156.574 51.5957C155.436 51.4853 154.255 51.3749 153.151 51.3749C145.408 51.3749 140.828 54.5096 137.487 56.7995C135.677 58.038 133.584 59.4686 131.458 59.4686H131.443ZM112.913 46.992C120.344 46.992 126.235 49.3971 131.314 54.476C131.477 54.6393 131.563 54.6729 131.563 54.6729C131.568 54.6729 131.573 54.6729 131.582 54.6729C132.077 54.6729 133.627 53.6119 134.765 52.8343C138.409 50.338 143.915 46.5696 153.142 46.5696C154.481 46.5696 155.772 46.6944 157.025 46.8144C159.387 47.04 161.615 47.256 162.464 46.3967C162.964 45.8927 163.727 44.3421 163.232 39.6184C162.445 32.0767 161.168 23.9302 159.814 17.8192C157.462 7.21477 155.513 5.15535 155.076 4.81451C150.66 5.29456 140.103 8.89976 134.588 12.2121C133.109 13.1002 131.323 13.3355 129.691 12.8602C120.532 10.3303 104.349 6.67712 99.8797 7.63242C98.9484 8.03087 96.8602 12.7354 96.4761 24.6887C96.1881 33.6225 96.9754 43.5404 98.3051 47.7697C98.9532 49.8243 99.6109 50.3044 99.8653 50.4148C100.696 50.7796 102.611 49.8915 104.306 49.109C106.245 48.2113 108.444 47.1936 110.763 47.0592C111.497 47.016 112.217 46.992 112.923 46.992H112.913Z" fill="#2E39FF"/>
<path d="M193.576 79.6647C193.576 79.6647 182.055 64.0308 177.387 66.6487C172.719 69.2667 170.205 79.5687 174.701 85.9458C179.197 92.3229 186.483 94.3778 184.83 97.4497C183.178 100.522 172.578 117.197 166.772 121.066C161.469 124.598 168.079 126.569 172.868 125.805C173.541 125.697 174.142 126.226 174.131 126.904C174.086 128.91 174.075 132.457 174.542 133.281C175.197 134.447 188.641 132.435 203.678 103.151C218.496 74.2956 223.538 66.8686 210.956 66.8604C196.543 66.8519 196.147 83.1336 193.585 79.6595L193.576 79.6647Z" fill="#2E39FF"/>
<path d="M131.828 43.6846C124.728 43.6846 118.693 39.5226 118.425 39.3305C117.772 38.8745 117.613 37.9768 118.069 37.3239C118.525 36.671 119.423 36.5126 120.076 36.9687C120.148 37.0167 126.398 41.3084 133.061 40.7515C139.845 40.1802 143.935 37.0455 143.978 37.0119C144.607 36.5222 145.509 36.6326 145.999 37.2615C146.489 37.8904 146.373 38.7929 145.749 39.2825C145.557 39.4313 140.934 42.9741 133.306 43.6174C132.812 43.6606 132.322 43.6798 131.833 43.6798L131.828 43.6846Z" fill="#2E39FF"/>
<path d="M121.986 32.7439C121.295 32.7439 120.685 32.2446 120.565 31.5389C120.546 31.4285 120.028 28.6346 117.877 28.6346C115.727 28.6346 115.208 31.4285 115.189 31.5437C115.05 32.3262 114.31 32.8543 113.528 32.715C112.745 32.5806 112.222 31.8462 112.352 31.0637C112.659 29.2251 114.205 25.7543 117.877 25.7543C121.55 25.7543 123.1 29.2299 123.403 31.0637C123.532 31.8462 123.004 32.5902 122.217 32.7198C122.135 32.7343 122.058 32.7391 121.977 32.7391L121.986 32.7439Z" fill="#2E39FF"/>
<path d="M150.737 32.7439C150.046 32.7439 149.436 32.2446 149.316 31.5389C149.297 31.4285 148.778 28.6346 146.628 28.6346C144.477 28.6346 143.959 31.4285 143.939 31.5437C143.8 32.3262 143.061 32.8543 142.278 32.715C141.496 32.5806 140.973 31.8462 141.102 31.0637C141.409 29.2251 142.96 25.7543 146.628 25.7543C150.295 25.7543 151.851 29.2299 152.153 31.0637C152.283 31.8462 151.755 32.5902 150.967 32.7198C150.886 32.7343 150.809 32.7391 150.727 32.7391L150.737 32.7439Z" fill="#2E39FF"/>
</svg>
