<svg xmlns="http://www.w3.org/2000/svg" width="178" height="313" fill="none" viewBox="0 0 178 313"><path fill="#2E39FF" d="M73.9786 182.81C73.9786 182.81 55.4586 176.82 49.3186 186.64C43.1786 196.46 19.8486 270.13 35.8086 294.68C51.7686 319.24 88.5986 314.32 94.7386 304.5C100.879 294.68 102.369 278.1 82.8986 277.49C63.4286 276.88 70.7986 248.64 74.4786 241.27C79.3886 228.99 107.839 195.55 73.9686 182.8L73.9786 182.81Z"/><path fill="#2E39FF" d="M132.54 182.81C132.54 182.81 151.06 176.82 157.2 186.64C163.34 196.46 186.67 270.13 170.71 294.68C154.75 319.24 117.92 314.32 111.78 304.5C105.64 294.68 104.15 278.1 123.62 277.49C143.09 276.88 135.72 248.64 132.04 241.27C127.13 228.99 98.6801 195.55 132.55 182.8L132.54 182.81Z"/><path fill="#2E39FF" d="M101.14 191.86C98.6796 191.86 96.2096 190.94 93.7996 188.53C84.2596 178.99 73.3996 175.12 58.6296 175.99C55.6996 176.16 52.1896 177.79 48.7996 179.36C43.3496 181.88 37.1796 184.74 31.3196 182.15C27.3596 180.4 24.4996 176.59 22.5796 170.5C19.8296 161.79 18.0596 143.75 18.1796 125.6C18.2596 113.26 19.2996 91.0101 25.3696 80.5801C27.4796 76.9601 30.1396 74.7801 33.2996 74.1101C48.0696 70.9401 94.8996 83.6801 100.2 85.1501L100.29 85.1701C101.03 85.3901 101.85 85.2701 102.56 84.8501C114.76 77.5401 138.65 69.0401 149.9 68.0201C158.04 67.2901 163.85 76.7401 169.27 99.6701C174.02 119.79 176.64 142.88 177.33 149.48C178.47 160.41 177.06 167.47 172.88 171.68C167.77 176.83 160.51 176.14 153.49 175.46C151.12 175.23 148.66 175 146.36 175C130.23 175 120.69 181.53 113.73 186.3C109.96 188.88 105.6 191.86 101.17 191.86H101.14ZM62.5396 165.87C78.0196 165.87 90.2896 170.88 100.87 181.46C101.21 181.8 101.39 181.87 101.39 181.87C101.4 181.87 101.41 181.87 101.43 181.87C102.46 181.87 105.69 179.66 108.06 178.04C115.65 172.84 127.12 164.99 146.34 164.99C149.13 164.99 151.82 165.25 154.43 165.5C159.35 165.97 163.99 166.42 165.76 164.63C166.8 163.58 168.39 160.35 167.36 150.51C165.72 134.8 163.06 117.83 160.24 105.1C155.34 83.0101 151.28 78.7201 150.37 78.0101C141.17 79.0101 119.18 86.5201 107.69 93.4201C104.61 95.2701 100.89 95.7601 97.4896 94.7701C78.4096 89.5001 44.6996 81.8901 35.3896 83.8801C33.4496 84.7101 29.0996 94.5101 28.2996 119.41C27.6996 138.02 29.3396 158.68 32.1096 167.49C33.4596 171.77 34.8296 172.77 35.3596 173C37.0896 173.76 41.0796 171.91 44.6096 170.28C48.6496 168.41 53.2296 166.29 58.0596 166.01C59.5896 165.92 61.0896 165.87 62.5596 165.87H62.5396Z"/><path fill="#2E39FF" d="M101.939 158.98C87.1487 158.98 74.5787 150.31 74.0187 149.91C72.6587 148.96 72.3287 147.09 73.2787 145.73C74.2287 144.37 76.0987 144.04 77.4587 144.99C77.6087 145.09 90.6287 154.03 104.509 152.87C118.639 151.68 127.159 145.15 127.249 145.08C128.559 144.06 130.439 144.29 131.459 145.6C132.479 146.91 132.239 148.79 130.939 149.81C130.539 150.12 120.909 157.5 105.019 158.84C103.989 158.93 102.969 158.97 101.949 158.97L101.939 158.98Z"/><path fill="#2E39FF" d="M81.4392 136.19C79.9992 136.19 78.7292 135.15 78.4792 133.68C78.4392 133.45 77.3592 127.63 72.8792 127.63C68.3992 127.63 67.3192 133.45 67.2792 133.69C66.9892 135.32 65.4492 136.42 63.8192 136.13C62.1892 135.85 61.0992 134.32 61.3692 132.69C62.0092 128.86 65.2292 121.63 72.8792 121.63C80.5292 121.63 83.7592 128.87 84.3892 132.69C84.6592 134.32 83.5592 135.87 81.9192 136.14C81.7492 136.17 81.5892 136.18 81.4192 136.18L81.4392 136.19Z"/><path fill="#2E39FF" d="M141.33 136.19C139.89 136.19 138.62 135.15 138.37 133.68C138.33 133.45 137.25 127.63 132.77 127.63C128.29 127.63 127.21 133.45 127.17 133.69C126.88 135.32 125.34 136.42 123.71 136.13C122.08 135.85 120.99 134.32 121.26 132.69C121.9 128.86 125.13 121.63 132.77 121.63C140.41 121.63 143.65 128.87 144.28 132.69C144.55 134.32 143.45 135.87 141.81 136.14C141.64 136.17 141.48 136.18 141.31 136.18L141.33 136.19Z"/><path fill="#2E39FF" d="M71.1597 24.5002C71.1597 24.5002 51.3597 21.9402 46.8897 28.3302C42.4197 34.7202 39.8597 50.6902 40.4997 55.1602C41.1397 59.6302 40.4997 68.5702 52.6397 69.8502C64.7797 71.1302 75.4397 68.4102 75.8597 61.7802C75.9597 49.0902 60.6297 54.2002 59.3497 54.2002C58.0697 54.2002 57.4297 53.5602 57.4297 51.6402C57.4297 49.7202 58.7097 49.7202 60.6197 49.7202C62.5297 49.7202 72.1197 51.0002 72.1197 45.2502C72.1197 39.5002 67.0097 40.7802 59.3397 40.7802C59.3397 40.7802 58.2297 40.7502 58.1497 38.8502C58.0697 36.9502 64.4497 36.9502 70.8397 39.5102C77.2297 42.0702 84.8897 26.7302 71.1597 24.5002Z"/><path fill="#2E39FF" d="M95.9305 20.7502C95.9305 20.7502 88.3005 18.2802 85.7705 22.3302C83.2405 26.3802 73.6305 56.7202 80.2105 66.8402C86.7905 76.9602 101.96 74.9302 104.49 70.8902C107.021 66.8402 107.631 60.0202 99.6105 59.7602C91.5905 59.5102 94.6205 47.8702 96.1405 44.8402C98.1605 39.7802 109.881 26.0002 95.9305 20.7502Z"/><path fill="#2E39FF" d="M112.989 19.3702C112.989 19.3702 120.149 16.1502 123.039 19.8102C125.929 23.4702 138.549 51.9702 133.239 62.5102C127.929 73.0602 112.949 72.7202 110.059 69.0602C107.159 65.4002 105.829 58.8202 113.609 57.7102C121.389 56.6002 117.179 45.6102 115.379 42.8202C112.869 38.1202 99.989 25.9702 112.999 19.3702H112.989Z"/><path fill="#2E39FF" d="M64.9592 2.65C63.2392 0.89 60.3992 0 56.5292 0C51.7692 0 46.7492 1.35 44.0492 2.08C43.5692 2.21 43.1592 2.32 42.8292 2.4C41.6992 2.68 40.4292 2.82 38.9392 2.82C35.4992 2.82 31.5492 2.08 27.7192 1.36C25.7592 0.99 23.9092 0.65 22.2592 0.43C20.3892 0.18 18.4492 0.05 16.6492 0.05C12.6692 0.05 9.31921 0.65 6.68921 1.85C3.46921 3.32 1.47921 5.63 0.599207 8.91C-0.240793 12.08 -0.200793 14.39 0.739207 15.61C1.56921 16.69 3.39921 17.23 6.17921 17.23C7.10921 17.23 8.00921 17.17 8.60921 17.12C9.40921 17.06 10.3492 16.93 11.3392 16.79C12.9992 16.56 14.8792 16.3 16.6292 16.3C19.6492 16.3 21.7992 17.09 23.2092 18.73C24.5692 20.31 25.0492 22.51 24.6392 25.25C24.2192 28.04 21.9892 31.86 19.1592 36.7C14.6492 44.43 8.46921 55.01 10.6492 61.09C11.3792 63.12 13.0892 64.6 15.8992 65.63C16.6592 65.91 17.4192 66.05 18.1592 66.05C22.0892 66.05 26.3692 61.88 30.2092 54.31C34.0392 46.76 37.2792 36.11 39.3392 24.32C39.3592 24.22 39.3792 24.12 39.4092 24.02C40.3592 20.74 41.7792 19.14 43.7692 19.14C43.9692 19.14 44.1392 19.16 44.5492 19.2C45.5392 19.3 47.8392 19.53 50.6692 19.53C55.3392 19.53 59.2792 18.89 62.0892 17.67C65.5692 16.16 67.2392 13.89 67.3292 10.53C67.3992 6.98 66.6092 4.32 64.9592 2.65Z"/><path fill="#2E39FF" d="M145.96 63.2098C145.49 63.9898 132.34 73.6498 130.75 75.8598C135.9 78.6998 144.66 74.1398 149.8 76.9798C151.16 74.9498 157.24 73.7698 158.76 71.3798C174.45 46.7298 182.03 37.3798 170.72 36.8398C157.77 36.2198 156.72 50.8398 154.57 47.6098C154.57 47.6098 144.88 33.0798 140.57 35.2298C136.26 37.3798 133.57 46.5298 137.34 52.4598C141.11 58.3798 147.57 60.5298 145.95 63.2298L145.96 63.2098Z"/><path fill="#2E39FF" d="M127.49 88.9299C127.83 93.7899 127.87 98.6199 127.12 101.25C125.54 106.76 131.22 104.26 134.06 100.95C134.46 100.48 135.18 100.49 135.56 100.97C136.7 102.37 138.76 104.81 139.56 105.1C140.44 105.43 145.5 99.9199 144.52 83.8799C138.81 85.3999 133.26 87.5599 127.49 88.9199V88.9299Z"/><path fill="#2E39FF" d="M127.581 90.3596C127.581 90.3596 126.101 73.9596 136.271 70.9896C146.441 68.0196 158.761 71.3796 158.761 71.3796C158.761 71.3796 144.841 76.2296 144.521 83.8896L127.581 90.3596Z"/></svg>