<svg xmlns="http://www.w3.org/2000/svg" width="64" height="54" fill="none" viewBox="0 0 64 54"><path fill="#2E39FF" d="M1.63672 21.1797V17.3125C1.63672 16.8047 1.81901 16.375 2.18359 16.0234C2.54818 15.6719 2.97786 15.4961 3.47266 15.4961C3.99349 15.4961 4.4362 15.6719 4.80078 16.0234C5.16536 16.375 5.34766 16.8047 5.34766 17.3125V21.043C5.34766 23.2565 5.8099 25.1966 6.73438 26.8633C7.67188 28.5169 8.98047 29.7995 10.6602 30.7109C12.3398 31.6224 14.2865 32.0781 16.5 32.0781C18.7266 32.0781 20.6732 31.6224 22.3398 30.7109C24.0065 29.7995 25.3086 28.5169 26.2461 26.8633C27.1836 25.1966 27.6523 23.2565 27.6523 21.043V17.3125C27.6523 16.8047 27.8346 16.375 28.1992 16.0234C28.5638 15.6719 29 15.4961 29.5078 15.4961C30.0156 15.4961 30.4453 15.6719 30.7969 16.0234C31.1615 16.375 31.3438 16.8047 31.3438 17.3125V21.1797C31.3438 23.862 30.7904 26.2318 29.6836 28.2891C28.5768 30.3464 27.0404 31.9935 25.0742 33.2305C23.1211 34.4674 20.862 35.2096 18.2969 35.457V39.4609H25.4648C25.9727 39.4609 26.4089 39.6367 26.7734 39.9883C27.138 40.3529 27.3203 40.7891 27.3203 41.2969C27.3203 41.7917 27.138 42.2148 26.7734 42.5664C26.4089 42.931 25.9727 43.1133 25.4648 43.1133H7.53516C7.02734 43.1133 6.59115 42.931 6.22656 42.5664C5.86198 42.2148 5.67969 41.7917 5.67969 41.2969C5.67969 40.7891 5.86198 40.3529 6.22656 39.9883C6.59115 39.6367 7.02734 39.4609 7.53516 39.4609H14.7031V35.457C12.138 35.2096 9.8724 34.4674 7.90625 33.2305C5.9401 31.9935 4.40365 30.3464 3.29688 28.2891C2.1901 26.2318 1.63672 23.862 1.63672 21.1797ZM16.5 28.0352C15.1849 28.0352 14.0065 27.7292 12.9648 27.1172C11.9362 26.4922 11.1224 25.6328 10.5234 24.5391C9.92448 23.4453 9.625 22.1758 9.625 20.7305V7.58594C9.625 6.14062 9.92448 4.87109 10.5234 3.77734C11.1224 2.68359 11.9362 1.83073 12.9648 1.21875C14.0065 0.59375 15.1849 0.28125 16.5 0.28125C17.8151 0.28125 18.987 0.59375 20.0156 1.21875C21.0573 1.83073 21.8711 2.68359 22.457 3.77734C23.056 4.87109 23.3555 6.14062 23.3555 7.58594V20.7305C23.3555 22.1758 23.056 23.4453 22.457 24.5391C21.8711 25.6328 21.0573 26.4922 20.0156 27.1172C18.987 27.7292 17.8151 28.0352 16.5 28.0352Z"/><path fill="#2E39FF" d="M46.1055 53.127C45.513 53.127 44.998 52.9538 44.5605 52.6074C44.123 52.2702 43.8405 51.819 43.7129 51.2539L43.166 48.9297L42.8652 48.834L40.8555 50.0645C40.3451 50.3835 39.8118 50.502 39.2559 50.4199C38.709 50.347 38.2305 50.1009 37.8203 49.6816L35.8926 47.7676C35.4642 47.3392 35.2135 46.8516 35.1406 46.3047C35.0768 45.7487 35.2044 45.2246 35.5234 44.7324L36.7676 42.7363L36.6582 42.4492L34.3613 41.9023C33.7962 41.7656 33.3405 41.4785 32.9941 41.041C32.6569 40.6035 32.4883 40.0885 32.4883 39.4961V36.8164C32.4883 36.224 32.6569 35.709 32.9941 35.2715C33.3314 34.834 33.7871 34.5469 34.3613 34.4102L36.6445 33.8496L36.7539 33.5488L35.5098 31.5527C35.1999 31.0605 35.0768 30.541 35.1406 29.9941C35.2135 29.4473 35.4642 28.9551 35.8926 28.5176L37.8066 26.5898C38.2259 26.1797 38.709 25.9382 39.2559 25.8652C39.8027 25.7832 40.3268 25.8971 40.8281 26.207L42.8379 27.4512L43.166 27.3281L43.7129 25.0039C43.8405 24.4479 44.123 23.9967 44.5605 23.6504C44.998 23.304 45.513 23.1309 46.1055 23.1309H48.8945C49.487 23.1309 50.002 23.304 50.4395 23.6504C50.877 23.9876 51.1595 24.4388 51.2871 25.0039L51.8203 27.3281L52.1484 27.4512L54.1719 26.207C54.6641 25.8971 55.1836 25.7832 55.7305 25.8652C56.2865 25.9382 56.7695 26.1797 57.1797 26.5898L59.1074 28.5176C59.5358 28.9551 59.7819 29.4473 59.8457 29.9941C59.9186 30.541 59.8001 31.0605 59.4902 31.5527L58.2324 33.5488L58.3555 33.8496L60.6387 34.4102C61.2038 34.5469 61.6549 34.834 61.9922 35.2715C62.3385 35.709 62.5117 36.224 62.5117 36.8164V39.4961C62.5117 40.0885 62.3385 40.6035 61.9922 41.041C61.6549 41.4785 61.2038 41.7656 60.6387 41.9023L58.3418 42.4492L58.2188 42.7363L59.4766 44.7324C59.7865 45.2246 59.9049 45.7487 59.832 46.3047C59.7682 46.8516 59.5267 47.3392 59.1074 47.7676L57.1797 49.6816C56.7604 50.1009 56.2728 50.347 55.7168 50.4199C55.1699 50.502 54.6504 50.3835 54.1582 50.0645L52.1348 48.834L51.8203 48.9297L51.2871 51.2539C51.1595 51.819 50.877 52.2702 50.4395 52.6074C50.002 52.9538 49.487 53.127 48.8945 53.127H46.1055ZM46.543 50.3926H48.457C48.6758 50.3926 48.7988 50.2878 48.8262 50.0781L49.6465 46.7285C50.1113 46.6283 50.5488 46.4915 50.959 46.3184C51.3691 46.1452 51.7565 45.9447 52.1211 45.7168L55.0469 47.5078C55.2201 47.6263 55.3841 47.6081 55.5391 47.4531L56.8789 46.1133C57.0247 45.9766 57.0384 45.8171 56.9199 45.6348L55.1152 42.709C55.3249 42.3626 55.5163 41.9798 55.6895 41.5605C55.8626 41.1322 56.0039 40.6992 56.1133 40.2617L59.4766 39.4688C59.6771 39.4323 59.7773 39.3047 59.7773 39.0859V37.2129C59.7773 37.0033 59.6771 36.8802 59.4766 36.8438L56.1133 36.0234C56.013 35.5677 55.8717 35.1302 55.6895 34.7109C55.5072 34.2826 55.3203 33.9043 55.1289 33.5762L56.9336 30.6504C57.0521 30.4681 57.0384 30.304 56.8926 30.1582L55.5527 28.832C55.3978 28.6953 55.2292 28.6771 55.0469 28.7773L52.1211 30.5547C51.7656 30.3451 51.3783 30.1491 50.959 29.9668C50.5488 29.7845 50.1113 29.6432 49.6465 29.543L48.8262 26.1797C48.7988 25.9701 48.6758 25.8652 48.457 25.8652H46.543C46.3242 25.8652 46.1966 25.9701 46.1602 26.1797L45.3672 29.5156C44.9115 29.625 44.4557 29.7754 44 29.9668C43.5534 30.1491 43.1706 30.3405 42.8516 30.541L39.9395 28.7637C39.7572 28.6634 39.5885 28.6862 39.4336 28.832L38.0801 30.1445C37.9434 30.2904 37.9342 30.459 38.0527 30.6504L39.8574 33.5762C39.666 33.9043 39.4792 34.2826 39.2969 34.7109C39.1146 35.1302 38.9733 35.5723 38.873 36.0371L35.5234 36.8438C35.3229 36.8802 35.2227 37.0033 35.2227 37.2129V39.0859C35.2227 39.3047 35.3229 39.4323 35.5234 39.4688L38.8867 40.2617C38.987 40.7083 39.1237 41.1413 39.2969 41.5605C39.4701 41.9707 39.6615 42.3535 39.8711 42.709L38.0527 45.6348C37.9525 45.8262 37.9707 45.9902 38.1074 46.127L39.4473 47.4668C39.6113 47.6217 39.7754 47.64 39.9395 47.5215L42.8789 45.7168C43.2344 45.9447 43.6217 46.1497 44.041 46.332C44.4694 46.5052 44.9069 46.6374 45.3535 46.7285L46.1602 50.0781C46.1966 50.2878 46.3242 50.3926 46.543 50.3926ZM47.5 43.3105C46.5521 43.3105 45.6862 43.0781 44.9023 42.6133C44.1185 42.1393 43.4896 41.5104 43.0156 40.7266C42.5508 39.9427 42.3184 39.0768 42.3184 38.1289C42.3184 37.1901 42.5508 36.3288 43.0156 35.5449C43.4896 34.7611 44.1185 34.1367 44.9023 33.6719C45.6862 33.207 46.5521 32.9746 47.5 32.9746C48.4479 32.9746 49.3138 33.207 50.0977 33.6719C50.8815 34.1367 51.5059 34.7611 51.9707 35.5449C52.4355 36.3288 52.668 37.1901 52.668 38.1289C52.668 39.0768 52.4355 39.9427 51.9707 40.7266C51.5059 41.5104 50.8815 42.1393 50.0977 42.6133C49.3138 43.0781 48.4479 43.3105 47.5 43.3105ZM47.5 40.7949C47.974 40.7949 48.4069 40.6764 48.7988 40.4395C49.1999 40.1934 49.5189 39.8698 49.7559 39.4688C50.002 39.0586 50.125 38.612 50.125 38.1289C50.125 37.6458 50.002 37.2083 49.7559 36.8164C49.5189 36.4154 49.1999 36.0964 48.7988 35.8594C48.4069 35.6133 47.974 35.4902 47.5 35.4902C47.0169 35.4902 46.5749 35.6087 46.1738 35.8457C45.7728 36.0827 45.4492 36.4017 45.2031 36.8027C44.9661 37.2038 44.8477 37.6458 44.8477 38.1289C44.8477 38.6211 44.9661 39.0677 45.2031 39.4688C45.4492 39.8698 45.7728 40.1934 46.1738 40.4395C46.5749 40.6764 47.0169 40.7949 47.5 40.7949Z"/></svg>