<svg width="93" height="81" viewBox="0 0 93 81" fill="none" xmlns="http://www.w3.org/2000/svg">
<path d="M38.4031 80.341C37.2644 80.341 36.1211 79.9152 35.0056 78.7996C30.5897 74.3838 25.5628 72.5924 18.7261 72.9951C17.3699 73.0738 15.7452 73.8283 14.176 74.555C11.6533 75.7215 8.79735 77.0453 6.08488 75.8465C4.25188 75.0364 2.92805 73.2729 2.03932 70.4539C0.766406 66.4222 -0.0528868 58.0719 0.00265866 49.6707C0.039689 43.9587 0.521084 33.6597 3.33076 28.8319C4.30743 27.1562 5.53869 26.1472 7.00138 25.837C13.8381 24.3697 35.5147 30.2668 37.968 30.9472L38.0096 30.9565C38.3522 31.0583 38.7317 31.0028 39.0604 30.8084C44.7075 27.4247 55.7657 23.4902 60.9731 23.0181C64.7409 22.6802 67.4302 27.0544 69.939 37.6682C72.1377 46.9813 73.3504 57.6692 73.6698 60.7242C74.1975 65.7835 73.5448 69.0514 71.61 71.0001C69.2447 73.3839 65.8842 73.0646 62.6348 72.7498C61.5378 72.6433 60.3991 72.5369 59.3345 72.5369C51.8682 72.5369 47.4524 75.5595 44.2307 77.7674C42.4857 78.9616 40.4675 80.341 38.417 80.341H38.4031ZM20.536 68.3108C27.7013 68.3108 33.3809 70.6298 38.2781 75.5271C38.4355 75.6845 38.5188 75.7169 38.5188 75.7169C38.5234 75.7169 38.5281 75.7169 38.5373 75.7169C39.0141 75.7169 40.5092 74.6939 41.6062 73.944C45.1195 71.5371 50.4287 67.9035 59.3252 67.9035C60.6166 67.9035 61.8618 68.0238 63.0699 68.1395C65.3473 68.3571 67.495 68.5654 68.3143 67.7368C68.7957 67.2508 69.5317 65.7557 69.0549 61.201C68.2958 53.9291 67.0645 46.0741 65.7592 40.1816C63.4911 29.9567 61.6118 27.9709 61.1906 27.6423C56.9321 28.1051 46.7534 31.5814 41.4349 34.7752C40.0093 35.6315 38.2874 35.8584 36.7136 35.4001C27.8818 32.9607 12.2782 29.4382 7.9688 30.3594C7.07081 30.7436 5.05729 35.2798 4.68699 46.8054C4.40926 55.4196 5.16838 64.9827 6.45056 69.0607C7.07544 71.0418 7.70959 71.5047 7.95491 71.6111C8.75569 71.9629 10.6026 71.1066 12.2365 70.3521C14.1066 69.4865 16.2266 68.5052 18.4623 68.3756C19.1705 68.3339 19.8648 68.3108 20.5452 68.3108H20.536Z" fill="#2E39FF"/>
<path d="M29.2841 54.5724C28.6175 54.5724 28.0297 54.091 27.9139 53.4106C27.8954 53.3041 27.3955 50.6102 25.3218 50.6102C23.2481 50.6102 22.7482 53.3041 22.7297 53.4152C22.5955 54.1697 21.8826 54.6789 21.1281 54.5446C20.3736 54.415 19.8691 53.7068 19.9941 52.9523C20.2903 51.1795 21.7808 47.8329 25.3218 47.8329C28.8628 47.8329 30.3579 51.1841 30.6496 52.9523C30.7745 53.7068 30.2654 54.4243 29.5062 54.5493C29.4276 54.5631 29.3535 54.5678 29.2748 54.5678L29.2841 54.5724Z" fill="#2E39FF"/>
<ellipse cx="41" cy="59.5" rx="7" ry="3.5" fill="#2E39FF"/>
<path d="M57.0062 54.5724C56.3397 54.5724 55.7518 54.091 55.6361 53.4106C55.6176 53.3041 55.1177 50.6102 53.044 50.6102C50.9703 50.6102 50.4704 53.3041 50.4519 53.4152C50.3176 54.1697 49.6048 54.6789 48.8503 54.5446C48.0958 54.415 47.5913 53.7068 47.7163 52.9523C48.0125 51.1795 49.5076 47.8329 53.044 47.8329C56.5804 47.8329 58.0801 51.1841 58.3717 52.9523C58.4967 53.7068 57.9875 54.4243 57.2284 54.5493C57.1497 54.5631 57.0757 54.5678 56.997 54.5678L57.0062 54.5724Z" fill="#2E39FF"/>
<path fill-rule="evenodd" clip-rule="evenodd" d="M69.2295 32.9836C80.9542 32.9836 90.459 26.0477 90.459 17.4918C90.459 8.93592 80.9542 2 69.2295 2C57.5048 2 48 8.93592 48 17.4918C48 21.2779 49.8612 24.7468 52.9524 27.4378L51.4426 37L60.9002 31.7458C63.4576 32.5426 66.273 32.9836 69.2295 32.9836Z" fill="white"/>
<path d="M52.9524 27.4378L54.928 27.7498L55.1006 26.6563L54.2656 25.9294L52.9524 27.4378ZM51.4426 37L49.4671 36.6881L48.8272 40.7409L52.4139 38.7483L51.4426 37ZM60.9002 31.7458L61.4952 29.8363L60.6775 29.5816L59.9289 29.9975L60.9002 31.7458ZM88.459 17.4918C88.459 20.9752 86.5282 24.3013 83.0621 26.8306C79.5976 29.3587 74.7136 30.9836 69.2295 30.9836V34.9836C75.4702 34.9836 81.2009 33.1405 85.42 30.0617C89.6374 26.9841 92.459 22.5643 92.459 17.4918H88.459ZM69.2295 4C74.7136 4 79.5976 5.6249 83.0621 8.15303C86.5282 10.6823 88.459 14.0084 88.459 17.4918H92.459C92.459 12.4193 89.6374 7.99947 85.42 4.92186C81.2009 1.84306 75.4702 0 69.2295 0V4ZM50 17.4918C50 14.0084 51.9308 10.6823 55.3969 8.15303C58.8614 5.6249 63.7455 4 69.2295 4V0C62.9888 0 57.2581 1.84306 53.039 4.92186C48.8216 7.99947 46 12.4193 46 17.4918H50ZM54.2656 25.9294C51.512 23.5322 50 20.5802 50 17.4918H46C46 21.9757 48.2105 25.9615 51.6392 28.9463L54.2656 25.9294ZM53.4181 37.3119L54.928 27.7498L50.9769 27.1259L49.4671 36.6881L53.4181 37.3119ZM59.9289 29.9975L50.4713 35.2517L52.4139 38.7483L61.8715 33.4941L59.9289 29.9975ZM69.2295 30.9836C66.4707 30.9836 63.8561 30.5719 61.4952 29.8363L60.3053 33.6552C63.0592 34.5133 66.0753 34.9836 69.2295 34.9836V30.9836Z" fill="#2E39FF"/>
</svg>
