<svg width="93" height="81" viewBox="0 0 93 81" fill="none" xmlns="http://www.w3.org/2000/svg">
<path d="M29.2841 54.5724C28.6175 54.5724 28.0297 54.091 27.9139 53.4106C27.8954 53.3041 27.3955 50.6102 25.3218 50.6102C23.2481 50.6102 22.7482 53.3041 22.7297 53.4152C22.5955 54.1697 21.8826 54.6789 21.1281 54.5446C20.3736 54.415 19.8691 53.7068 19.9941 52.9523C20.2903 51.1795 21.7808 47.8329 25.3218 47.8329C28.8628 47.8329 30.3579 51.1841 30.6496 52.9523C30.7745 53.7068 30.2654 54.4243 29.5062 54.5493C29.4276 54.5631 29.3535 54.5678 29.2748 54.5678L29.2841 54.5724Z" fill="#2E39FF"/>
<ellipse cx="41" cy="59.5" rx="7" ry="3.5" fill="#2E39FF"/>
<path d="M57.0062 54.5724C56.3397 54.5724 55.7518 54.091 55.6361 53.4106C55.6176 53.3041 55.1177 50.6102 53.044 50.6102C50.9703 50.6102 50.4704 53.3041 50.4519 53.4152C50.3176 54.1697 49.6048 54.6789 48.8503 54.5446C48.0958 54.415 47.5913 53.7068 47.7163 52.9523C48.0125 51.1795 49.5076 47.8329 53.044 47.8329C56.5804 47.8329 58.0801 51.1841 58.3717 52.9523C58.4967 53.7068 57.9876 54.4243 57.2284 54.5493C57.1497 54.5631 57.0757 54.5678 56.997 54.5678L57.0062 54.5724Z" fill="#2E39FF"/>
<path fill-rule="evenodd" clip-rule="evenodd" d="M50 17.4918C50 14.0084 51.9308 10.6823 55.3969 8.15303C58.8614 5.6249 63.7455 4 69.2295 4C74.7136 4 79.5976 5.6249 83.0621 8.15303C86.5282 10.6823 88.459 14.0084 88.459 17.4918C88.459 20.9752 86.5282 24.3013 83.0621 26.8306C79.5976 29.3587 74.7136 30.9836 69.2295 30.9836C66.4707 30.9836 63.8561 30.5719 61.4952 29.8363L60.6775 29.5816L54.0581 33.2591L55.1006 26.6563L54.2656 25.9294C51.512 23.5322 50 20.5802 50 17.4918ZM69.2295 0C62.9888 0 57.2581 1.84306 53.039 4.92186C48.8216 7.99947 46 12.4193 46 17.4918C46 20.7239 47.1486 23.6973 49.0742 26.2235C45.3232 27.6135 41.6311 29.268 39.0604 30.8083C38.7317 31.0028 38.3522 31.0583 38.0096 30.9565L37.968 30.9472C35.5147 30.2668 13.8381 24.3697 7.00138 25.837C5.53869 26.1472 4.30743 27.1562 3.33076 28.8319C0.521084 33.6597 0.039689 43.9587 0.00265866 49.6707C-0.0528868 58.0719 0.766406 66.4222 2.03932 70.4539C2.92805 73.2728 4.25188 75.0364 6.08488 75.8465C8.79374 77.0437 11.6457 75.725 14.1659 74.5597L14.176 74.555L14.1934 74.547C15.7572 73.8227 17.3749 73.0735 18.7261 72.9951C25.5628 72.5924 30.5897 74.3838 35.0056 78.7996C36.1211 79.9152 37.2644 80.341 38.4031 80.341H38.417C40.4675 80.341 42.4857 78.9616 44.2307 77.7674C47.4524 75.5595 51.8682 72.5369 59.3345 72.5369C60.3991 72.5369 61.5378 72.6433 62.6348 72.7498C65.8842 73.0646 69.2447 73.3839 71.61 71.0001C73.5448 69.0514 74.1975 65.7835 73.6698 60.7242C73.3504 57.6692 72.1377 46.9813 69.939 37.6682C69.7159 36.7243 69.4914 35.8298 69.2648 34.9836C75.4918 34.9767 81.2088 33.1347 85.42 30.0617C89.6374 26.9841 92.459 22.5643 92.459 17.4918C92.459 12.4193 89.6374 7.99947 85.42 4.92186C81.2009 1.84306 75.4702 0 69.2295 0ZM64.3416 34.5983C63.2443 34.4226 62.1747 34.1887 61.1392 33.9009L48.8272 40.7409L50.4199 30.6537C47.0959 31.8923 43.7892 33.3614 41.4349 34.7752C40.0093 35.6315 38.2874 35.8584 36.7136 35.4001C27.8818 32.9607 12.2782 29.4382 7.9688 30.3594C7.07081 30.7435 5.05729 35.2798 4.68699 46.8054C4.40926 55.4196 5.16838 64.9827 6.45056 69.0607C7.07544 71.0418 7.70959 71.5046 7.95491 71.6111C8.75183 71.9612 10.5848 71.1148 12.2129 70.363L12.2365 70.3521L12.2367 70.352C14.1067 69.4864 16.2266 68.5052 18.4623 68.3756C19.1689 68.334 19.8617 68.3109 20.5407 68.3108C27.7038 68.3118 33.3819 70.6309 38.2781 75.5271C38.4355 75.6844 38.5188 75.7168 38.5188 75.7168H38.5373C39.0126 75.7168 40.5 74.7001 41.5961 73.9509L41.5962 73.9509L41.6062 73.944C45.1195 71.537 50.4287 67.9035 59.3252 67.9035C60.6056 67.9035 61.8404 68.0217 63.0388 68.1365L63.0699 68.1395L63.0933 68.1418C65.362 68.3585 67.4978 68.5625 68.3143 67.7368C68.7957 67.2508 69.5317 65.7557 69.0549 61.201C68.2958 53.9291 67.0645 46.0741 65.7592 40.1816C65.2645 37.9513 64.7883 36.113 64.3416 34.5983ZM20.5407 68.3108C20.5422 68.3108 20.5437 68.3108 20.5452 68.3108H20.536C20.5375 68.3108 20.5391 68.3108 20.5407 68.3108Z" fill="#2E39FF"/>
</svg>
