<svg width="72" height="57" viewBox="0 0 72 57" fill="none" xmlns="http://www.w3.org/2000/svg">
<path d="M37.3678 56.2476C36.2628 56.2476 35.1533 55.8329 34.0707 54.7465C29.7853 50.4461 24.907 48.7016 18.2723 49.0938C16.9562 49.1704 15.3795 49.9052 13.8567 50.6129C11.4086 51.7489 8.63699 53.0381 6.00468 51.8706C4.22584 51.0817 2.94113 49.3643 2.07867 46.619C0.843369 42.6928 0.0482855 34.5608 0.102189 26.3792C0.138125 20.8167 0.605294 10.787 3.33194 6.08537C4.27975 4.45357 5.47462 3.47088 6.89409 3.16886C13.5288 1.7399 34.5648 7.48277 36.9456 8.14541L36.986 8.15442C37.3184 8.25359 37.6868 8.1995 38.0057 8.01018C43.4859 4.71501 54.2173 0.883426 59.2708 0.423636C62.9273 0.09457 65.5372 4.35439 67.9718 14.6907C70.1055 23.7603 71.2824 34.1686 71.5924 37.1438C72.1045 42.0707 71.4711 45.2532 69.5934 47.151C67.298 49.4724 64.0368 49.1614 60.8834 48.8549C59.8188 48.7512 58.7138 48.6475 57.6806 48.6475C50.435 48.6475 46.1497 51.5911 43.0233 53.7413C41.3298 54.9043 39.3713 56.2476 37.3813 56.2476H37.3678ZM20.0287 44.532C26.9823 44.532 32.494 46.7903 37.2465 51.5595C37.3993 51.7128 37.4801 51.7443 37.4801 51.7443C37.4846 51.7443 37.4891 51.7443 37.4981 51.7443C37.9608 51.7443 39.4117 50.7481 40.4763 50.0179C43.8857 47.6739 49.038 44.1353 57.6717 44.1353C58.9249 44.1353 60.1333 44.2525 61.3057 44.3652C63.5157 44.577 65.6 44.7799 66.3951 43.973C66.8623 43.4997 67.5765 42.0437 67.1138 37.608C66.3772 30.5264 65.1823 22.8767 63.9155 17.1384C61.7145 7.18075 59.8907 5.24693 59.4819 4.92688C55.3493 5.37765 45.4714 8.76297 40.3101 11.8733C38.9265 12.7073 37.2555 12.9281 35.7282 12.4819C27.1575 10.1063 12.015 6.67588 7.83292 7.57292C6.96147 7.94707 5.00745 12.3647 4.64809 23.589C4.37857 31.9779 5.11526 41.2909 6.35955 45.2622C6.96597 47.1915 7.58137 47.6423 7.81944 47.746C8.59656 48.0886 10.3889 47.2546 11.9745 46.5199C13.7893 45.6769 15.8466 44.7213 18.0163 44.5951C18.7036 44.5545 19.3774 44.532 20.0377 44.532H20.0287Z" fill="#2E39FF"/>
<path d="M38.0495 41.3564C31.5561 41.3564 26.0374 37.4707 25.7915 37.2914C25.1944 36.8657 25.0495 36.0276 25.4666 35.418C25.8837 34.8085 26.7047 34.6606 27.3018 35.0864C27.3677 35.1312 33.0839 39.1379 39.1778 38.618C45.3814 38.0847 49.122 35.1581 49.1616 35.1267C49.7367 34.6696 50.5621 34.7727 51.0099 35.3598C51.4577 35.9469 51.3524 36.7895 50.7816 37.2466C50.606 37.3855 46.378 40.6931 39.4017 41.2937C38.9495 41.334 38.5017 41.3519 38.0539 41.3519L38.0495 41.3564Z" fill="#2E39FF"/>
<path d="M28.5568 31.1189C27.9187 31.1189 27.3559 30.6535 27.2451 29.9958C27.2273 29.8928 26.7487 27.2887 24.7634 27.2887C22.7781 27.2887 22.2995 29.8928 22.2818 30.0002C22.1532 30.7296 21.4708 31.2218 20.7484 31.092C20.0261 30.9667 19.5431 30.2821 19.6627 29.5528C19.9463 27.8391 21.3733 24.604 24.7634 24.604C28.1535 24.604 29.5849 27.8435 29.8641 29.5528C29.9838 30.2821 29.4963 30.9757 28.7695 31.0965C28.6942 31.1099 28.6233 31.1144 28.5479 31.1144L28.5568 31.1189Z" fill="#2E39FF"/>
<path d="M55.547 31.1189C54.9089 31.1189 54.3461 30.6535 54.2353 29.9958C54.2176 29.8928 53.739 27.2887 51.7536 27.2887C49.7683 27.2887 49.2897 29.8928 49.272 30.0002C49.1435 30.7296 48.461 31.2218 47.7387 31.092C47.0163 30.9667 46.5333 30.2821 46.653 29.5528C46.9366 27.8391 48.368 24.604 51.7536 24.604C55.1393 24.604 56.5751 27.8435 56.8543 29.5528C56.974 30.2821 56.4865 30.9757 55.7597 31.0965C55.6844 31.1099 55.6135 31.1144 55.5382 31.1144L55.547 31.1189Z" fill="#2E39FF"/>
</svg>
