<svg xmlns="http://www.w3.org/2000/svg" width="63" height="49" fill="none" viewBox="0 0 63 49"><path fill="#2E39FF" d="M33.0531 48.9753C32.095 48.9753 31.133 48.6157 30.1944 47.6738C26.4789 43.9453 22.2493 42.4328 16.4969 42.7728C15.3557 42.8392 13.9887 43.4763 12.6684 44.0899C10.5458 45.0748 8.14281 46.1926 5.86054 45.1803C4.31826 44.4964 3.20438 43.0073 2.45661 40.6271C1.38558 37.223 0.696224 30.1724 0.74296 23.0788C0.774117 18.2559 1.17916 9.55995 3.54322 5.48358C4.36499 4.06877 5.40097 3.21676 6.63168 2.9549C12.3841 1.71596 30.6228 6.69516 32.687 7.26968L32.722 7.27749C33.0102 7.36348 33.3296 7.31658 33.6061 7.15243C38.3576 4.29545 47.6619 0.973382 52.0434 0.574734C55.2137 0.289427 57.4765 3.98278 59.5874 12.9445C61.4373 20.8081 62.4577 29.8324 62.7265 32.4119C63.1705 36.6836 62.6213 39.4429 60.9933 41.0883C59.0032 43.1011 56.1756 42.8314 53.4416 42.5657C52.5186 42.4758 51.5605 42.3859 50.6647 42.3859C44.3826 42.3859 40.6671 44.938 37.9564 46.8023C36.4881 47.8106 34.7901 48.9753 33.0647 48.9753H33.0531ZM18.0197 38.8176C24.0486 38.8176 28.8273 40.7757 32.9479 44.9106C33.0803 45.0435 33.1504 45.0709 33.1504 45.0709C33.1543 45.0709 33.1582 45.0709 33.166 45.0709C33.5671 45.0709 34.8251 44.2071 35.7482 43.574C38.7042 41.5417 43.1714 38.4737 50.6569 38.4737C51.7435 38.4737 52.7912 38.5753 53.8077 38.673C55.7239 38.8567 57.531 39.0325 58.2203 38.333C58.6254 37.9226 59.2446 36.6602 58.8435 32.8144C58.2048 26.6745 57.1688 20.042 56.0705 15.0668C54.1621 6.4333 52.5809 4.75663 52.2265 4.47914C48.6434 4.86997 40.079 7.80511 35.6041 10.5019C34.4045 11.2249 32.9557 11.4164 31.6315 11.0295C24.2005 8.96979 11.0716 5.99557 7.44567 6.77332C6.6901 7.09771 4.99593 10.9279 4.68435 20.6596C4.45067 27.9329 5.0894 36.0075 6.16822 39.4507C6.694 41.1235 7.22757 41.5143 7.43398 41.6042C8.10776 41.9012 9.66173 41.1782 11.0365 40.5412C12.61 39.8103 14.3937 38.9817 16.2749 38.8723C16.8707 38.8371 17.4549 38.8176 18.0275 38.8176H18.0197Z"/><path fill="#2E39FF" d="M33.6436 36.0644C28.0137 36.0644 23.2289 32.6954 23.0157 32.54C22.498 32.1708 22.3724 31.4442 22.734 30.9157C23.0957 30.3873 23.8075 30.259 24.3252 30.6282C24.3823 30.667 29.3384 34.1409 34.6219 33.6902C40.0006 33.2278 43.2438 30.6903 43.278 30.6631C43.7767 30.2668 44.4923 30.3562 44.8806 30.8652C45.2689 31.3742 45.1775 32.1048 44.6827 32.5011C44.5304 32.6216 40.8647 35.4893 34.8161 36.01C34.424 36.045 34.0357 36.0605 33.6474 36.0605L33.6436 36.0644Z"/><path fill="#2E39FF" d="M25.4132 27.1882C24.8599 27.1882 24.3719 26.7847 24.2759 26.2144C24.2605 26.1252 23.8455 23.8674 22.1242 23.8674C20.4029 23.8674 19.9879 26.1252 19.9726 26.2183C19.8611 26.8507 19.2694 27.2774 18.6432 27.1649C18.0169 27.0563 17.5981 26.4627 17.7018 25.8304C17.9477 24.3445 19.1849 21.5397 22.1242 21.5397C25.0635 21.5397 26.3046 24.3484 26.5466 25.8304C26.6504 26.4627 26.2277 27.064 25.5976 27.1688C25.5323 27.1804 25.4708 27.1843 25.4055 27.1843L25.4132 27.1882Z"/><path fill="#2E39FF" d="M48.8143 27.1882C48.261 27.1882 47.773 26.7847 47.677 26.2144C47.6616 26.1252 47.2467 23.8674 45.5253 23.8674C43.804 23.8674 43.3891 26.1252 43.3737 26.2183C43.2623 26.8507 42.6706 27.2774 42.0443 27.1649C41.418 27.0563 40.9992 26.4627 41.1029 25.8304C41.3488 24.3445 42.5899 21.5397 45.5253 21.5397C48.4608 21.5397 49.7057 24.3484 49.9477 25.8304C50.0515 26.4627 49.6288 27.064 48.9987 27.1688C48.9334 27.1804 48.8719 27.1843 48.8066 27.1843L48.8143 27.1882Z"/></svg>