<svg xmlns="http://www.w3.org/2000/svg" width="390" height="342" fill="none" viewBox="0 0 390 342"><path fill="#BD87F1" fill-rule="evenodd" d="M0 26.6019V1.7518C5.05101 0.331723 10.6112 -0.133182 16.0776 1.68896C47.5256 12.1716 85.9951 67.8867 40.8968 187.02C32.6079 208.916 31.5819 225.841 34.4167 238.845C37.2294 251.748 44.0574 261.797 53.3148 269.691C72.314 285.892 101.204 292.619 122.61 293.391C138.404 293.743 173.758 291.432 191.361 286.437C199.348 284.17 209.036 279.518 220.447 273.643C222.533 272.569 224.67 271.457 226.849 270.324C236.177 265.474 246.257 260.231 256.222 255.893C268.491 250.552 281.7 246.059 294.589 245.308C307.875 244.535 321.17 247.75 332.311 258.059C342.94 267.896 356.006 284.223 368.608 299.971C372.805 305.216 376.95 310.396 380.937 315.252C384.403 319.472 387.768 323.477 391 327.169V342H373.415C370.009 338.101 366.573 334.001 363.163 329.848C358.529 324.206 353.956 318.494 349.501 312.929L349.497 312.924C337.278 297.661 325.944 283.505 316.689 274.94C311.08 269.75 304.375 267.778 295.926 268.27C287.081 268.785 276.822 272.01 265.403 276.981C256.24 280.971 247.05 285.747 237.772 290.57L237.769 290.571C235.51 291.745 233.246 292.922 230.975 294.091C219.776 299.857 208.152 305.58 197.64 308.563C176.804 314.476 138.737 316.766 122.013 316.383L121.941 316.382L121.868 316.379C97.7948 315.525 62.9307 308.118 38.391 287.192C25.868 276.513 15.975 262.234 11.9444 243.744C7.93596 225.355 9.94447 203.82 19.3865 178.877C62.9427 63.8174 20.9273 27.5496 8.8044 23.5087C8.81834 23.5133 8.81261 23.5129 8.78598 23.5107C8.538 23.4904 6.47828 23.3219 1.61351 25.7534C1.08624 26.0169 0.548198 26.3 0 26.6019Z" clip-rule="evenodd"/></svg>